<svg width="18" height="18" viewBox="0 0 18 18" fill="none" xmlns="http://www.w3.org/2000/svg">
<g clip-path="url(#clip0_139_851)">
<path d="M8.9325 2.8125C9.18 2.8125 9.41625 2.88 9.61875 3.00375L14.4563 6.04125C14.8388 6.2775 15.0638 6.6825 15.0638 7.1325V13.7587C15.0638 14.4675 14.49 15.0413 13.7812 15.0413H4.095C3.38625 15.0413 2.8125 14.4675 2.8125 13.7587V7.1325C2.8125 6.6825 3.0375 6.2775 3.42 6.04125L8.24625 3.00375C8.44875 2.88 8.685 2.8125 8.9325 2.8125ZM8.9325 1.125C8.38125 1.125 7.83 1.27125 7.34625 1.575L2.52 4.6125C1.65375 5.1525 1.125 6.10875 1.125 7.1325V13.7587C1.125 15.4012 2.4525 16.7288 4.095 16.7288H13.7587C15.4012 16.7288 16.7288 15.4012 16.7288 13.7587V7.1325C16.7288 6.10875 16.2 5.1525 15.3337 4.6125L10.5075 1.575C10.0238 1.27125 9.4725 1.125 8.92125 1.125H8.9325Z" fill="#50555C"/>
<path d="M8.93262 12.8249V9.48364" stroke="#50555C" stroke-width="1.5" stroke-linecap="round" stroke-linejoin="round"/>
</g>
<defs>
<clipPath id="clip0_139_851">
<rect width="15.615" height="15.615" fill="white" transform="translate(1.125 1.125)"/>
</clipPath>
</defs>
</svg>
