<svg width="20" height="20" viewBox="0 0 20 20" fill="none" xmlns="http://www.w3.org/2000/svg">
<path fill-rule="evenodd" clip-rule="evenodd" d="M12.04 0.999998L2.59 10.45C2.22 10.83 2 11.33 2 11.86V14C2 15.11 2.9 16 4 16H6.13C6.66 16 7.17 15.79 7.54 15.41L16.99 5.96C18.16 4.79 18.17 2.89 17 1.72L16.28 0.999998C15.11 -0.170003 13.21 -0.170003 12.04 0.999998ZM7.88401 12.9447L6.47227 14.3564L6.46529 14.3636C6.38455 14.4465 6.26522 14.5 6.13 14.5H4C3.72354 14.5 3.5 14.2767 3.5 14V11.86C3.5 11.7543 3.54306 11.6238 3.65965 11.5017L5.05032 10.111L7.88401 12.9447ZM8.94467 11.884L15.9293 4.89934C16.5201 4.3086 16.517 3.35837 15.9393 2.78066L15.2193 2.06066C14.6351 1.47644 13.6849 1.47644 13.1006 2.06066L6.11098 9.05032L8.94467 11.884Z" fill="#4B5966"/>
</svg>
